<?xml version="1.0" standalone="no"?>
<!DOCTYPE svg PUBLIC "-//W3C//DTD SVG 20010904//EN"
 "http://www.w3.org/TR/2001/REC-SVG-20010904/DTD/svg10.dtd">
<svg version="1.0" xmlns="http://www.w3.org/2000/svg"
 width="1024.000000pt" height="1024.000000pt" viewBox="0 0 1024.000000 1024.000000"
 preserveAspectRatio="xMidYMid meet">

<g transform="translate(0.000000,1024.000000) scale(0.100000,-0.100000)"
fill="#000000" stroke="none">
<path d="M2696 9289 c-38 -30 -56 -71 -56 -129 l0 -50 -49 0 c-50 0 -114 -21
-127 -41 -19 -31 -22 -83 -7 -113 27 -54 43 -66 88 -66 24 0 56 -3 72 -6 29
-6 30 -7 29 -71 0 -63 1 -67 34 -94 49 -41 115 -41 159 0 29 27 31 34 31 95
l0 66 53 0 c72 0 118 26 135 76 16 47 9 90 -19 124 -18 21 -32 26 -93 30 l-71
5 -5 75 c-5 71 -6 75 -39 97 -43 29 -99 30 -135 2z"/>
<path d="M6701 9205 c-25 -33 -27 -76 -5 -110 14 -21 24 -25 68 -25 72 0 96
19 96 75 0 53 -19 70 -91 80 -42 6 -48 4 -68 -20z"/>
<path d="M7589 9191 c-27 -28 -29 -35 -29 -108 l0 -78 -57 -14 c-91 -20 -140
-45 -158 -81 -22 -43 -12 -82 36 -129 38 -39 40 -40 106 -38 l68 2 3 -74 c4
-108 40 -149 129 -148 34 0 51 7 80 32 37 32 38 35 39 101 0 38 1 74 2 79 1 6
29 9 66 8 75 -2 104 14 137 79 23 46 20 93 -9 127 -19 22 -108 51 -159 51
l-33 0 0 70 c0 76 -16 122 -49 140 -11 5 -47 10 -81 10 -55 0 -65 -3 -91 -29z"/>
<path d="M8458 9138 c-40 -14 -47 -50 -50 -268 l-3 -195 63 -8 63 -9 -3 -106
-3 -107 -217 -3 c-270 -3 -250 13 -246 -193 l3 -144 68 -3 67 -3 0 -79 0 -80
173 0 c169 0 175 1 228 28 93 47 93 48 97 393 l3 296 66 6 c36 3 110 3 165 0
l98 -6 0 -168 0 -169 -35 0 c-22 0 -52 -11 -78 -27 -51 -34 -54 -38 -68 -88
-23 -80 21 -173 106 -228 46 -30 55 -32 140 -32 101 0 145 17 205 77 70 69 69
63 75 586 4 326 3 478 -5 492 -23 43 -35 44 -470 45 -228 1 -427 -2 -442 -7z
m-48 -902 c0 -19 4 -46 10 -61 9 -24 7 -27 -25 -41 -72 -30 -85 -19 -85 77 l0
59 50 0 50 0 0 -34z"/>
<path d="M4625 9059 c-16 -5 -35 -16 -41 -24 -7 -9 -61 -29 -120 -45 -106 -27
-231 -64 -324 -93 -65 -20 -157 -60 -310 -134 -230 -112 -443 -245 -585 -367
-45 -39 -124 -106 -176 -148 -123 -101 -233 -209 -275 -272 -32 -48 -34 -56
-34 -136 0 -81 2 -87 32 -124 l31 -38 -74 -72 c-41 -39 -104 -99 -142 -133
l-67 -63 0 -74 0 -74 -37 -7 c-58 -10 -83 -39 -83 -96 0 -49 -9 -59 -53 -59
-46 0 -52 -13 -57 -132 l-5 -112 -40 -8 c-22 -5 -46 -16 -53 -25 -18 -25 -17
-831 2 -855 7 -10 44 -52 82 -94 38 -42 73 -83 77 -91 6 -9 -24 -48 -103 -131
-61 -64 -121 -134 -133 -154 -15 -25 -31 -38 -51 -42 -59 -12 -56 14 -56 -530
l0 -501 137 -137 c75 -76 134 -141 130 -144 -4 -4 -173 -9 -376 -10 -408 -3
-448 -7 -453 -52 -3 -26 -6 -27 -63 -30 -109 -4 -117 -12 -130 -118 -7 -54
-16 -61 -102 -79 -47 -9 -73 -47 -73 -106 l0 -49 -57 0 c-88 -1 -103 -17 -114
-121 -5 -46 -9 -424 -8 -839 1 -601 4 -762 15 -787 l13 -33 75 0 75 0 3 -83 3
-82 82 -3 82 -3 3 -82 3 -82 98 -3 97 -3 0 -72 c0 -40 3 -82 6 -94 l6 -23 467
-2 466 -3 5 -136 c5 -144 14 -171 54 -168 72 5 76 3 76 -51 0 -80 14 -99 74
-102 46 -3 51 -6 54 -28 6 -39 50 -80 87 -80 32 0 32 -1 38 -56 9 -85 7 -84
178 -84 l149 0 0 64 0 64 43 7 c63 10 85 28 89 72 l3 38 61 3 c71 3 74 8 74
100 l0 52 155 0 154 0 3 -72 3 -73 62 -3 61 -3 7 -42 c10 -56 30 -77 75 -77
34 0 38 -3 44 -31 3 -17 6 -47 6 -65 l0 -34 314 0 c239 0 316 3 324 13 12 14
12 12 12 82 l0 56 153 -3 152 -3 5 -70 5 -70 766 -3 766 -2 7 31 c3 17 6 53 6
80 l0 49 94 0 c53 0 98 -4 101 -10 3 -6 33 -10 65 -10 l59 0 3 -67 3 -68 311
-3 312 -2 6 22 c3 13 6 42 6 65 l0 42 50 7 c57 8 77 25 82 74 l3 35 75 5 75 5
3 72 3 72 67 3 67 3 3 152 3 153 507 2 507 3 3 93 3 92 104 0 105 0 0 85 0 85
65 0 c61 0 65 1 80 30 8 16 15 54 15 85 l0 55 65 0 c45 0 65 4 66 13 0 6 0
399 0 872 l-1 860 -22 17 c-14 10 -41 18 -65 18 -40 0 -43 2 -43 28 0 15 -4
43 -9 62 -5 19 -12 47 -15 62 -6 27 -9 28 -71 28 l-65 0 0 85 0 85 -100 0
-100 0 0 29 c0 18 -6 31 -17 36 -10 3 -178 9 -373 11 -372 5 -460 10 -460 24
0 5 61 70 135 144 l135 135 0 486 c0 329 -3 493 -11 507 -6 11 -26 26 -45 34
-19 8 -34 21 -34 29 0 7 -56 73 -125 145 -69 72 -125 136 -125 142 0 6 43 55
95 109 l95 98 0 383 c0 351 -2 387 -19 433 -16 44 -23 50 -50 53 l-31 3 0 88
c0 75 -3 93 -23 122 -16 23 -32 35 -52 37 -38 5 -45 16 -45 73 0 52 -21 79
-62 79 -54 0 -58 6 -58 88 l0 76 -67 66 c-38 37 -88 81 -113 99 -25 17 -57 49
-71 69 l-25 37 25 39 c23 34 26 52 28 129 2 104 -6 126 -69 182 -24 21 -99 92
-168 158 -161 153 -375 318 -560 429 -206 125 -613 292 -845 347 -166 40 -215
54 -215 62 0 4 -15 13 -32 20 -39 15 -1042 22 -1093 8z m916 -244 c326 -49
621 -141 924 -290 199 -97 384 -211 528 -324 136 -108 255 -221 240 -227 -7
-3 -13 -10 -13 -16 0 -19 -71 -98 -112 -125 l-39 -26 -52 50 c-127 122 -331
296 -432 370 -124 90 -330 202 -482 261 -171 68 -448 141 -602 158 -168 20
-564 14 -711 -10 -184 -30 -507 -123 -612 -177 -20 -10 -42 -19 -49 -19 -12 0
-267 -150 -312 -184 -163 -123 -385 -329 -545 -506 -48 -52 -91 -95 -97 -95
-5 0 -45 37 -88 81 -72 76 -77 83 -67 109 6 17 15 25 24 22 12 -5 13 0 5 21
-12 36 2 82 32 103 42 30 63 31 103 4 36 -24 38 -25 61 -8 14 10 25 23 25 30
0 6 6 14 13 16 6 3 2 6 -10 6 -26 1 -63 45 -63 75 1 37 54 86 93 86 8 0 29
-13 46 -29 25 -23 34 -27 44 -17 6 6 27 18 45 25 31 13 32 15 17 37 -21 33
-19 58 10 93 28 33 84 56 114 46 13 -4 39 8 83 38 59 42 224 129 384 205 194
91 604 201 844 225 108 11 563 6 651 -8z m181 -612 l3 -58 137 -3 c135 -3 137
-3 192 -36 30 -18 75 -39 100 -46 32 -9 46 -18 50 -35 3 -12 26 -45 51 -73
l45 -50 0 -84 c0 -75 3 -87 23 -106 17 -16 31 -20 57 -16 34 5 43 -2 279 -221
135 -124 255 -228 268 -232 28 -6 188 2 219 12 16 5 37 -9 100 -69 73 -70 82
-76 122 -76 l42 0 2 -42 c0 -24 1 -49 0 -57 0 -7 9 -39 19 -70 36 -103 51
-175 58 -271 l6 -95 68 -3 67 -3 0 -254 c0 -140 -2 -255 -4 -255 -2 0 -26 9
-53 21 -36 15 -79 22 -170 26 l-123 6 0 65 c0 86 -21 112 -92 112 l-48 0 0 45
c0 45 -26 111 -52 132 -7 6 -34 14 -60 18 -28 4 -48 13 -48 20 0 14 -93 95
-109 95 -7 0 -11 23 -11 57 0 52 -3 60 -37 95 -30 31 -44 38 -75 38 -33 0 -38
3 -43 28 -4 15 -10 34 -14 42 -11 20 -101 69 -128 70 -16 0 -23 6 -23 19 0 26
-45 124 -64 140 -11 9 -33 12 -67 9 -28 -3 -64 0 -80 6 -28 10 -29 13 -29 73
0 47 -4 64 -17 71 -9 5 -63 7 -120 4 l-103 -5 0 29 c0 18 -12 44 -31 67 l-30
37 -140 0 -139 0 0 28 c0 16 -9 37 -20 47 -44 40 -967 44 -1052 4 -22 -10 -28
-19 -28 -45 l0 -33 -155 -3 c-174 -3 -184 -8 -185 -79 0 -33 -3 -37 -31 -43
-17 -3 -67 -6 -110 -6 -69 0 -80 -2 -93 -22 -9 -12 -16 -41 -16 -65 0 -23 -3
-44 -7 -46 -5 -3 -49 -10 -100 -16 -51 -6 -99 -14 -108 -17 -23 -9 -39 -43
-45 -99 l-5 -50 -65 -6 c-106 -9 -109 -11 -112 -77 l-3 -57 -72 -3 -73 -3 0
-94 0 -94 -47 -3 -48 -3 -3 -57 -3 -58 -59 0 -60 0 0 -72 c0 -108 -5 -118 -51
-118 -21 0 -49 -4 -63 -10 -25 -9 -26 -13 -26 -88 l0 -79 -108 -5 c-83 -4
-121 -11 -170 -31 l-62 -25 0 259 0 259 75 0 75 0 0 78 c0 54 9 113 31 197 18
66 35 152 38 190 l6 70 42 3 c37 3 50 12 117 79 59 58 80 73 93 67 10 -4 65
-10 123 -12 l105 -3 127 118 c70 65 180 168 245 229 l118 110 55 3 c30 1 55 3
56 4 1 1 4 47 6 102 4 99 5 100 42 140 20 22 43 54 50 71 11 24 26 35 77 53
35 13 80 33 99 45 30 18 55 22 165 26 l130 5 3 45 c1 25 5 51 7 58 3 9 122 12
549 12 l545 0 3 -57z m-2832 -819 c0 -34 -41 -84 -102 -121 -16 -10 -28 -23
-28 -29 0 -7 -16 -41 -35 -77 -19 -36 -35 -72 -35 -81 0 -9 -4 -16 -9 -16 -13
0 -106 -196 -131 -275 -19 -60 -25 -70 -49 -73 -33 -5 -37 25 -11 97 54 152
134 291 268 461 99 125 132 154 132 114z m2560 -189 c52 -8 113 -20 135 -27
33 -11 40 -17 38 -38 -1 -14 3 -39 8 -57 8 -25 18 -35 47 -43 20 -5 42 -10 48
-10 20 0 97 -57 110 -81 7 -13 13 -50 14 -81 0 -84 3 -88 70 -88 48 0 62 -4
88 -27 31 -27 32 -31 34 -123 l3 -95 75 -5 c78 -5 103 -14 134 -49 17 -18 19
-35 17 -117 -3 -119 7 -134 82 -134 52 0 124 -27 148 -56 8 -9 12 -53 13 -120
1 -122 0 -120 99 -135 34 -5 76 -11 92 -14 l30 -5 0 -365 c0 -201 -1 -365 -3
-365 -2 0 -92 9 -200 19 -702 69 -1135 88 -1665 71 -344 -11 -642 -32 -1002
-70 -169 -18 -200 -24 -202 -40 -12 -90 -9 -87 -69 -94 -34 -4 -61 -2 -69 4
-6 5 -15 7 -18 3 -4 -3 -40 -11 -82 -18 l-75 -11 0 408 c0 282 3 407 10 403 6
-4 16 -2 23 3 7 5 38 17 70 26 32 9 60 22 62 29 6 19 15 221 15 350 0 85 3
119 13 122 6 2 38 6 70 10 l57 6 0 78 0 77 45 20 c32 14 83 60 187 169 78 83
150 153 158 157 8 4 43 7 76 7 71 1 74 5 74 85 l0 53 66 7 c37 4 106 22 153
40 200 77 350 109 651 140 59 6 270 -5 370 -19z m1439 -1341 c35 -9 73 -20 85
-25 l22 -10 1 -395 1 -394 -27 4 c-14 2 -29 5 -33 5 -5 1 -9 16 -9 34 l-1 32
-7 -30 c-4 -20 -9 -26 -14 -17 -5 7 -13 10 -18 7 -5 -4 -9 3 -9 14 0 15 -7 21
-22 22 -14 1 -7 5 18 11 l41 10 6 107 c2 58 0 146 -6 195 -8 68 -8 91 1 94 14
4 16 82 2 82 -5 0 -10 18 -10 40 0 22 -5 40 -10 40 -15 0 -56 41 -63 63 -4 11
-1 17 9 17 21 0 -2 41 -27 47 -10 3 -19 14 -19 24 0 11 -6 19 -13 19 -8 0 -12
-14 -11 -42 1 -40 1 -40 -3 -5 -2 20 -7 37 -11 37 -4 0 -8 8 -8 18 0 21 34 20
135 -4z m-3821 -546 l-3 -563 -25 -3 c-69 -7 -69 -8 -72 -75 l-3 -62 -77 -3
-77 -3 -7 -44 c-3 -25 -4 -54 -1 -64 7 -28 -6 -41 -46 -48 l-37 -6 0 234 c0
129 -3 419 -7 645 l-6 410 23 22 c29 27 158 91 218 107 26 7 64 14 85 14 l37
1 -2 -562z m4321 552 c68 -13 161 -51 200 -81 l30 -24 -2 -505 -2 -505 -47 -3
-48 -3 0 -53 c0 -78 -11 -88 -95 -84 l-70 3 -3 55 c-4 62 -14 80 -48 80 l-24
0 0 565 0 565 29 0 c15 0 52 -4 80 -10z m-509 -220 c0 -22 5 -40 10 -40 6 0
10 -18 10 -40 0 -22 -4 -40 -10 -40 -5 0 -10 17 -10 39 0 30 -4 40 -20 44 -15
4 -20 14 -20 41 0 29 4 36 20 36 17 0 20 -7 20 -40z m-4372 -552 l-3 -453 -54
-3 c-77 -4 -96 3 -122 45 -13 21 -27 40 -31 41 -4 2 -8 127 -8 278 l0 275 26
52 c43 85 153 217 181 217 11 0 13 -86 11 -452z m4376 211 c5 -52 3 -64 -12
-76 -12 -10 -14 -16 -4 -19 14 -6 17 -44 3 -44 -6 0 -13 5 -17 12 -11 18 -14
108 -3 108 5 0 9 18 9 40 0 62 16 47 24 -21z m13 -1 c-2 -13 -4 -3 -4 22 0 25
2 35 4 23 2 -13 2 -33 0 -45z m20 10 c-2 -13 -4 -5 -4 17 -1 22 1 32 4 23 2
-10 2 -28 0 -40z m-2813 -554 c73 -74 -11 -191 -108 -150 -48 20 -71 66 -56
112 15 44 44 64 96 64 31 0 48 -6 68 -26z m2099 15 c75 -34 54 -145 -31 -168
-59 -17 -111 26 -112 90 0 70 73 110 143 78z m1840 -286 c4 -3 -10 -24 -31
-47 -22 -24 -45 -54 -52 -67 -17 -31 -29 -39 -62 -39 -16 0 -28 -4 -28 -10 0
-14 -16 -12 -19 3 -10 68 -11 167 -2 167 7 0 14 -7 17 -15 7 -18 35 -20 32 -2
-5 20 112 29 145 10z m-5541 -33 c5 -19 6 -58 2 -87 -5 -50 -6 -52 -29 -41
-15 7 -22 16 -18 27 3 10 2 12 -4 5 -4 -6 -18 -13 -30 -16 -18 -5 -22 -2 -19
14 1 11 -8 32 -21 46 -43 47 -8 95 67 90 42 -3 45 -5 52 -38z m-132 -592 c49
-25 83 -75 95 -139 14 -80 -36 -168 -119 -208 -40 -20 -59 -21 -362 -21 l-319
0 -1 -388 c0 -213 -3 -457 -7 -542 -3 -85 -6 -170 -7 -187 0 -26 -5 -34 -25
-39 -35 -9 -26 -15 30 -20 25 -2 50 -6 56 -9 5 -4 9 -33 9 -66 0 -32 1 -60 3
-61 1 -1 144 -5 318 -8 l316 -5 37 -29 c89 -67 102 -218 27 -299 -57 -62 -52
-62 -453 -65 l-366 -3 -36 32 c-49 43 -60 64 -66 132 l-5 59 -56 1 c-70 2 -89
17 -89 71 0 35 -4 44 -29 59 -16 9 -43 17 -59 17 -25 0 -31 5 -37 33 -4 17 -9
319 -12 670 l-4 637 70 0 71 0 0 78 c0 42 4 83 9 91 5 8 35 15 75 18 l66 6 0
67 c0 72 20 112 64 130 11 5 188 9 391 9 365 1 371 1 415 -21z m6467 5 c48
-22 73 -66 73 -128 0 -28 5 -56 10 -61 7 -7 10 -250 8 -735 -3 -688 -4 -726
-22 -761 -21 -40 -59 -54 -120 -43 -42 8 -56 -11 -56 -79 0 -54 -16 -66 -84
-66 l-44 0 -7 -67 c-7 -62 -11 -71 -46 -105 -22 -20 -53 -40 -71 -43 -18 -3
-182 -5 -364 -3 l-331 3 -36 28 c-20 15 -48 48 -63 73 -23 39 -26 53 -22 119
4 88 22 119 88 153 43 21 54 22 307 22 l263 0 0 70 0 70 85 0 86 0 -3 153 -3
152 -70 8 c-38 5 -155 11 -260 13 -214 5 -252 14 -261 64 -4 19 -11 27 -20 23
-11 -4 -14 2 -13 23 4 60 -8 74 -64 74 -31 0 -41 5 -54 29 -9 16 -30 37 -46
47 -15 11 -35 31 -42 45 -8 15 -25 29 -38 33 -14 3 -33 18 -43 33 -17 26 -19
51 -19 311 0 320 -5 302 83 302 l52 0 0 68 c0 40 5 75 13 84 46 57 127 65 182
17 34 -30 35 -34 35 -100 l0 -69 39 0 c22 0 51 -4 65 -10 l26 -10 0 -138 c0
-76 3 -194 7 -261 l6 -121 216 2 216 3 0 280 0 280 68 3 67 3 0 67 c0 79 20
120 71 145 44 21 92 21 136 0z m-5155 -62 c32 -28 33 -32 32 -99 l-1 -70 78
-4 c70 -3 81 -6 108 -32 l31 -30 0 -157 0 -156 50 -7 c85 -11 82 2 78 -336
l-3 -297 -38 -56 c-74 -113 -170 -144 -261 -87 -72 46 -96 105 -96 238 l0 102
-197 0 c-109 0 -214 -3 -233 -6 -34 -6 -37 -9 -52 -67 -16 -61 -15 -85 2 -57
5 7 15 15 24 16 12 2 14 -8 12 -53 -9 -149 -187 -251 -311 -178 -30 17 -59 46
-81 80 -34 54 -34 54 -34 174 l0 120 67 3 66 3 -2 176 c-3 224 -2 229 54 229
l43 0 4 161 3 161 28 24 c23 20 39 24 93 24 l64 0 0 71 c0 67 2 73 34 105 l34
34 186 0 186 0 32 -29z m1354 -1 c31 -29 63 -94 64 -129 1 -128 -135 -242
-271 -227 l-56 7 -6 -42 c-3 -22 -3 -116 0 -208 3 -91 2 -268 -2 -393 -7 -219
-8 -229 -32 -266 -33 -51 -109 -102 -151 -102 -67 0 -140 58 -186 147 -14 28
-16 82 -16 442 l0 409 -88 4 c-116 4 -173 35 -214 117 -46 90 -34 203 24 240
42 27 91 29 500 28 l406 -2 28 -25z m1071 -6 c52 -42 68 -91 55 -170 -23 -145
-88 -184 -306 -184 -73 0 -161 -3 -195 -6 l-61 -7 0 -298 0 -299 220 0 c244 0
253 -2 308 -64 36 -41 47 -87 38 -158 -10 -70 -28 -102 -84 -140 l-47 -33
-237 0 -237 0 -31 30 c-42 40 -50 56 -56 118 -7 60 -14 67 -70 67 -56 0 -74
22 -77 96 l-3 59 -40 -3 c-55 -4 -90 11 -111 50 -15 30 -17 61 -14 308 1 151
3 276 4 277 1 1 39 3 85 4 l82 3 0 81 c0 50 5 86 12 93 7 7 39 12 73 12 l60 0
1 75 c2 109 7 114 153 117 64 2 189 3 278 3 l162 0 38 -31z m361 16 c51 -23
72 -64 72 -140 l0 -50 48 0 c26 0 53 -5 60 -12 8 -8 12 -55 12 -145 l0 -133
175 0 175 0 0 155 0 155 50 0 50 0 0 59 c0 33 3 67 6 76 10 24 58 45 105 45
33 0 47 -6 75 -34 32 -32 34 -38 34 -100 l0 -66 50 0 50 0 0 -509 0 -509 -40
-50 c-119 -151 -236 -154 -341 -8 l-29 39 0 179 0 178 -178 0 -179 0 -6 -171
-7 -171 -42 -56 c-67 -88 -158 -123 -227 -88 -49 26 -99 90 -106 138 -3 24 -5
294 -3 600 l3 558 26 25 c23 23 87 54 114 54 6 0 29 -8 53 -19z m-4308 -599
c0 -6 -7 -8 -16 -4 -12 4 -15 2 -12 -8 10 -27 -10 -47 -44 -44 -22 2 -43 -5
-65 -21 -44 -34 -53 -30 -52 19 1 39 2 40 9 12 l8 -30 2 35 c1 19 2 37 2 41 0
3 37 6 84 8 53 1 84 -1 84 -8z m0 -85 c0 -8 -4 -18 -10 -21 -5 -3 -10 3 -10
14 0 12 5 21 10 21 6 0 10 -6 10 -14z m-49 -63 c-9 -16 -10 -15 -11 8 0 14 3
29 8 33 12 12 14 -22 3 -41z m-31 17 c0 -21 -15 -27 -25 -10 -7 12 2 30 16 30
5 0 9 -9 9 -20z m-80 -28 c0 -15 -2 -15 -10 -2 -8 12 -10 12 -10 1 0 -8 -3
-12 -6 -8 -4 3 -4 13 0 22 7 20 26 10 26 -13z m173 -17 c-3 -9 -8 -14 -10 -11
-3 3 -2 9 2 15 9 16 15 13 8 -4z m-320 -42 c-7 -2 -13 -18 -13 -34 0 -19 -4
-28 -11 -24 -6 4 -8 14 -5 22 3 8 1 11 -4 8 -6 -3 -10 -3 -10 1 0 9 33 33 45
33 6 0 4 -3 -2 -6z m-46 -65 c-3 -8 -6 -5 -6 6 -1 11 2 17 5 13 3 -3 4 -12 1
-19z m12 -68 c0 -10 -3 -8 -9 5 -12 27 -12 43 0 25 5 -8 9 -22 9 -30z m81 30
c0 -5 -7 -10 -16 -10 -8 0 -12 5 -9 10 3 6 10 10 16 10 5 0 9 -4 9 -10z m-15
-70 c-10 -11 -26 -20 -37 -20 -31 0 -17 -34 17 -43 19 -4 19 -5 -1 -6 -29 -1
-47 23 -38 51 8 28 22 38 53 38 23 0 24 -1 6 -20z m55 16 c0 -3 -4 -8 -10 -11
-5 -3 -10 -1 -10 4 0 6 5 11 10 11 6 0 10 -2 10 -4z m140 -31 c0 -8 -9 -15
-19 -15 -24 0 -36 16 -19 23 24 10 38 7 38 -8z m-128 -30 c3 -13 1 -22 -3 -19
-9 5 -13 44 -5 44 2 0 6 -11 8 -25z m28 13 c0 20 16 14 17 -8 1 -11 -3 -20 -8
-20 -6 0 -8 -10 -4 -22 5 -21 5 -21 -9 2 -17 28 -23 76 -6 50 6 -10 10 -11 10
-2z m-60 -23 c0 -8 -4 -15 -10 -15 -5 0 -10 4 -10 9 0 5 -8 12 -17 14 -11 3
-7 5 10 6 18 1 27 -4 27 -14z m285 -5 c-7 -11 -38 -6 -42 7 -2 6 7 8 21 6 14
-3 24 -9 21 -13z m88 13 c-7 -2 -19 -2 -25 0 -7 3 -2 5 12 5 14 0 19 -2 13 -5z
m-198 -43 c14 -6 4 -9 -37 -9 -33 -1 -58 3 -58 9 0 12 67 12 95 0z m46 -48
c19 4 33 -70 20 -104 -11 -29 -43 -39 -77 -25 -18 8 -20 14 -14 53 4 25 12 50
18 56 7 7 12 21 12 33 1 19 1 19 14 2 8 -10 20 -16 27 -15z m-133 -84 c-2 -24
-7 -43 -13 -43 -5 0 -11 19 -13 43 -3 33 0 42 13 42 13 0 16 -9 13 -42z m1312
-500 c65 -45 86 -121 52 -188 -29 -59 -72 -80 -163 -80 l-79 0 -2 -237 c-3
-303 -4 -351 -6 -390 -2 -37 -57 -105 -103 -129 -65 -33 -137 -7 -186 67 l-28
43 0 320 0 321 -78 1 c-71 0 -80 3 -108 30 -43 40 -59 76 -59 126 0 55 17 87
59 115 34 23 38 23 351 23 312 0 318 0 350 -22z m640 -8 c58 -41 60 -57 60
-410 l0 -320 200 0 200 0 0 328 c0 306 1 329 20 359 41 67 112 88 182 54 86
-42 83 -27 83 -439 l0 -363 -42 -40 c-25 -23 -52 -39 -66 -39 -20 0 -30 -11
-53 -57 -48 -94 -47 -94 -303 -100 l-221 -4 0 54 c0 79 -5 87 -55 87 -33 0
-57 10 -111 44 -126 80 -114 34 -114 427 0 382 1 388 68 428 46 27 106 24 152
-9z m1180 9 c72 -41 70 -27 70 -502 l0 -425 -33 -44 c-45 -59 -101 -79 -151
-55 -20 9 -49 35 -66 58 l-30 42 0 426 c0 409 1 427 20 459 37 60 122 79 190
41z m512 12 c39 -15 77 -61 85 -104 l8 -41 46 2 c61 4 94 -22 103 -83 7 -44 7
-44 55 -51 62 -8 70 -13 86 -60 12 -37 15 -39 59 -42 51 -3 60 -13 71 -80 6
-37 10 -43 28 -40 22 3 22 7 27 213 3 144 9 217 18 232 17 30 83 63 124 63 40
0 91 -29 115 -67 17 -25 18 -56 15 -453 l-4 -425 -24 -37 c-32 -50 -65 -70
-122 -75 -56 -6 -90 18 -116 80 -14 34 -18 37 -53 37 -49 0 -78 21 -93 65 -11
35 -12 35 -70 35 -91 0 -103 15 -108 133 l-4 95 -54 4 c-42 4 -61 11 -83 32
l-28 27 -6 -197 c-6 -173 -9 -201 -28 -233 -60 -106 -176 -104 -228 3 -20 41
-21 58 -21 453 0 275 4 421 11 442 22 63 118 100 191 72z m1834 -7 c58 -28 84
-68 84 -129 0 -43 -5 -60 -26 -85 -49 -58 -60 -60 -319 -60 l-236 0 3 -72 3
-73 185 -6 c102 -3 186 -7 187 -8 43 -29 74 -69 79 -102 5 -29 12 -39 25 -40
11 -1 24 -3 29 -4 6 -1 16 -3 24 -4 7 0 25 -13 40 -27 24 -25 26 -33 26 -115
0 -48 -5 -98 -11 -111 -15 -32 -56 -61 -98 -67 -29 -5 -39 -14 -60 -56 -42
-81 -58 -85 -308 -85 l-211 0 -31 26 c-17 14 -31 34 -31 44 0 41 -11 50 -58
50 -68 0 -82 18 -82 102 l0 68 304 0 304 0 6 28 c2 15 2 47 -2 72 -9 57 -17
59 -195 52 l-137 -5 -40 41 c-38 40 -42 42 -100 42 -66 0 -113 18 -130 51 -6
11 -12 82 -13 159 -2 165 2 175 83 175 l50 0 0 37 c0 55 14 83 52 101 49 24
553 25 604 1z"/>
<path d="M3020 7820 c0 -5 5 -10 11 -10 5 0 7 5 4 10 -3 6 -8 10 -11 10 -2 0
-4 -4 -4 -10z"/>
<path d="M5108 7903 c-37 -4 -48 -15 -28 -28 16 -10 11 -35 -7 -36 -10 0 -3
-5 15 -10 32 -10 41 -22 22 -34 -19 -12 -10 -51 19 -83 43 -47 94 -40 94 12 0
14 3 26 8 26 5 0 9 -7 9 -16 0 -8 5 -12 10 -9 14 9 13 96 -1 93 -6 -2 -14 3
-16 10 -3 6 2 12 11 12 28 0 17 25 -24 53 -24 17 -36 18 -112 10z m139 -135
c-3 -7 -5 -2 -5 12 0 14 2 19 5 13 2 -7 2 -19 0 -25z"/>
<path d="M5871 7790 c-40 -10 -51 -24 -51 -70 0 -50 14 -60 85 -60 56 0 63 2
73 25 17 38 15 80 -6 98 -20 18 -46 20 -101 7z"/>
<path d="M3175 6968 c-3 -13 -5 -53 -3 -88 l3 -65 80 0 80 0 0 85 0 85 -77 3
c-74 3 -78 2 -83 -20z"/>
<path d="M4032 6080 c-67 -41 -77 -141 -21 -204 l27 -31 180 -3 c204 -4 238 4
272 60 35 58 21 120 -40 172 -31 26 -32 26 -208 26 -160 0 -180 -2 -210 -20z"/>
<path d="M3867 5645 c-73 -26 -117 -85 -117 -157 0 -48 27 -100 60 -118 32
-17 93 -14 131 6 29 16 57 19 189 19 175 0 204 9 234 72 21 45 20 70 -7 117
-39 69 -66 76 -272 76 -126 -1 -192 -5 -218 -15z"/>
<path d="M5956 5550 c-97 -30 -123 -158 -45 -224 35 -30 22 -28 234 -30 l160
-1 45 -33 c40 -30 50 -33 93 -28 91 10 141 63 140 146 -1 76 -51 145 -122 169
-40 13 -461 14 -505 1z"/>
<path d="M6973 5480 c0 -25 2 -35 4 -22 2 12 2 32 0 45 -2 12 -4 2 -4 -23z"/>
<path d="M1633 2760 c0 -25 2 -35 4 -22 2 12 2 32 0 45 -2 12 -4 2 -4 -23z"/>
<path d="M1583 2600 c0 -25 2 -35 4 -22 2 12 2 32 0 45 -2 12 -4 2 -4 -23z"/>
<path d="M1632 2415 c0 -16 2 -22 5 -12 2 9 2 23 0 30 -3 6 -5 -1 -5 -18z"/>
<path d="M1566 2335 c-3 -9 0 -15 9 -15 8 0 15 7 15 15 0 8 -4 15 -9 15 -5 0
-11 -7 -15 -15z"/>
<path d="M3373 3425 c-2 -6 -2 -85 -1 -175 l3 -165 30 -3 c17 -2 81 -1 143 3
88 6 112 10 112 22 0 9 -5 11 -12 7 -10 -6 -10 -4 0 8 10 12 12 51 8 158 -3
78 -7 144 -10 147 -10 10 -269 8 -273 -2z"/>
<path d="M1992 2590 c0 -19 2 -27 5 -17 2 9 2 25 0 35 -3 9 -5 1 -5 -18z"/>
<path d="M1818 8678 c-33 -19 -38 -27 -38 -58 0 -35 -1 -36 -36 -32 -50 6 -63
-15 -64 -108 l0 -75 50 -23 50 -23 0 -104 0 -105 -59 0 c-38 0 -63 -5 -70 -14
-6 -8 -25 -19 -41 -26 -68 -28 -94 -150 -49 -229 63 -112 230 -129 321 -33 64
68 65 78 59 583 l-1 127 -29 12 c-31 13 -41 34 -41 93 0 20 -3 37 -7 37 -5 0
-25 -10 -45 -22z"/>
<path d="M9380 7911 c0 -40 0 -40 -42 -43 -39 -3 -44 -6 -54 -38 -7 -19 -9
-53 -5 -75 6 -40 7 -40 54 -43 46 -3 47 -4 47 -37 0 -41 22 -65 58 -65 44 0
74 27 70 64 -3 30 -1 31 38 34 37 3 41 6 50 41 9 32 7 45 -10 82 -19 38 -25
44 -49 41 -24 -3 -27 0 -27 26 0 25 -5 30 -39 40 -21 7 -50 12 -65 12 -24 0
-26 -4 -26 -39z"/>
<path d="M2071 7556 c-7 -8 -11 -39 -10 -72 3 -78 21 -95 90 -88 64 6 78 22
79 87 0 43 -3 49 -32 67 -39 23 -110 27 -127 6z"/>
<path d="M1175 7484 c-45 -23 -64 -43 -67 -73 -3 -22 -9 -27 -43 -31 -33 -4
-43 -11 -62 -45 -13 -22 -23 -50 -23 -63 0 -14 -13 -34 -30 -49 -54 -45 -63
-75 -68 -230 l-5 -142 49 -3 49 -3 3 -72 3 -73 58 0 c64 0 71 -7 71 -72 0 -24
4 -28 29 -28 48 0 61 -9 61 -45 0 -37 15 -45 87 -45 l42 0 7 -50 7 -50 83 0
84 0 0 50 0 50 65 0 65 0 0 39 c0 42 11 51 61 51 25 0 29 4 29 28 0 62 8 71
64 74 l51 3 3 72 3 72 47 3 47 3 0 190 0 190 -42 3 -43 3 0 58 c0 31 -5 62
-12 69 -7 7 -33 12 -59 12 l-48 0 -6 44 c-8 51 -15 55 -100 62 -76 6 -137 -24
-145 -71 -5 -29 -7 -30 -60 -30 l-55 0 -5 40 c-5 38 -8 41 -55 57 -63 22 -102
22 -140 2z"/>
<path d="M9185 7373 c-72 -16 -121 -39 -154 -74 -58 -59 -82 -60 -135 -6 -53
55 -104 72 -195 63 -73 -6 -91 -18 -91 -56 0 -41 -10 -60 -30 -60 -13 0 -27
-18 -44 -54 -22 -46 -26 -69 -26 -145 0 -49 5 -113 11 -141 10 -48 12 -50 45
-50 31 0 34 -3 34 -29 0 -15 3 -49 6 -75 l7 -46 47 0 c52 0 60 -10 60 -77 0
-33 1 -33 48 -33 56 0 66 -6 79 -45 l10 -30 121 -3 122 -3 0 24 c0 37 22 58
68 64 l42 6 0 48 0 49 50 0 49 0 3 73 3 72 40 3 c22 2 43 9 47 15 4 7 8 72 8
145 0 114 -3 140 -21 183 -19 42 -25 49 -50 49 l-29 0 0 70 0 70 -52 -1 c-29
-1 -62 -3 -73 -6z"/>
<path d="M766 6548 c-47 -54 -49 -96 -5 -132 43 -36 96 -36 131 2 62 66 27
171 -59 172 -25 0 -39 -9 -67 -42z"/>
<path d="M8400 6280 l0 -91 83 3 82 3 0 85 0 85 -82 3 -83 3 0 -91z"/>
<path d="M9400 6345 c-41 -7 -120 -20 -175 -29 -114 -19 -246 -42 -322 -57
l-53 -10 0 -309 0 -309 -64 6 c-55 5 -69 2 -105 -17 -63 -36 -96 -91 -96 -161
1 -102 71 -175 178 -186 42 -4 62 -1 95 16 23 12 42 28 42 36 0 9 9 15 23 15
12 0 38 13 57 29 l35 29 3 254 3 255 77 12 c42 7 121 20 175 30 l97 18 0 -113
0 -114 -63 0 c-110 0 -177 -67 -177 -177 0 -50 5 -67 29 -99 36 -51 65 -70
119 -77 51 -6 106 13 122 43 6 10 28 24 50 30 21 6 48 22 59 37 20 25 21 37
21 444 l0 419 -27 -1 c-16 -1 -62 -7 -103 -14z"/>
<path d="M1092 6180 c-45 -25 -57 -50 -62 -130 l-5 -75 -60 0 c-42 0 -70 -6
-95 -21 -37 -21 -89 -101 -74 -113 5 -3 9 -10 9 -16 2 -26 30 -63 60 -79 24
-13 53 -18 99 -17 l66 1 0 -75 c0 -68 2 -77 29 -107 27 -30 34 -33 90 -33 55
0 64 3 92 32 30 29 32 36 33 105 l1 73 75 5 c88 6 112 17 134 64 21 45 20 94
-3 132 -22 37 -55 50 -131 53 -87 3 -89 5 -79 52 13 58 -4 113 -44 141 -37 27
-95 30 -135 8z m-32 -435 c0 -8 -6 -15 -13 -15 -8 0 -14 7 -14 15 0 8 6 15 14
15 7 0 13 -7 13 -15z"/>
<path d="M8416 5901 c-10 -16 -19 -119 -12 -145 5 -22 13 -25 76 -31 96 -10
102 -4 98 99 l-3 81 -77 3 c-42 2 -79 -1 -82 -7z"/>
<path d="M1692 5510 c-21 -9 -23 -14 -20 -87 l3 -78 45 -5 c25 -3 63 -3 85 0
l40 5 3 75 c2 62 0 77 -14 87 -20 15 -108 16 -142 3z"/>
<path d="M1306 5091 c-52 -64 -74 -75 -136 -65 -31 5 -45 14 -60 39 -21 34
-99 75 -143 75 -13 0 -36 -9 -51 -21 -22 -17 -26 -28 -26 -69 0 -47 0 -48 -37
-55 -54 -10 -68 -20 -87 -59 -20 -42 -23 -265 -4 -284 7 -7 36 -12 65 -12 l53
0 0 -56 c0 -75 23 -114 67 -114 31 0 33 -2 33 -36 0 -61 13 -74 75 -74 l55 0
0 -45 c0 -54 16 -65 93 -65 63 0 74 9 79 65 l3 40 50 3 c63 4 75 15 75 68 l0
44 55 0 55 0 0 85 0 85 59 0 c58 0 59 1 65 31 10 51 7 279 -4 300 -9 15 -22
19 -64 19 -61 0 -66 7 -66 93 0 42 -3 49 -26 57 -14 6 -49 10 -78 10 -53 0
-53 0 -100 -59z"/>
<path d="M9293 4780 c-27 -16 -33 -26 -34 -57 -1 -21 -2 -47 -3 -58 -1 -17 -9
-20 -62 -23 l-61 -3 -14 -41 c-12 -36 -11 -44 7 -77 19 -35 21 -36 74 -36 l55
0 5 -59 c5 -54 7 -60 39 -77 36 -19 63 -15 100 18 16 13 21 29 21 65 l0 48 55
0 c53 0 55 1 73 37 18 34 18 40 5 79 l-15 43 -56 3 -57 3 -3 40 c-4 71 -11 86
-47 101 -43 18 -44 18 -82 -6z"/>
<path d="M8572 4653 c-55 -19 -75 -55 -61 -106 12 -46 42 -67 94 -67 87 0 129
98 68 162 -30 32 -40 33 -101 11z"/>
</g>
</svg>
